# xmcd CD database file
#
# Track frame offsets:
#	150
#	16426
#	33824
#	48918
#	66187
#	81532
#	96980
#	115260
#	128916
#	145499
#
# Disc length: 2139 seconds
#
# Revision: 0
# Processed by: cddbd v1.5.2PL0 Copyright (c) Steve Scherf et al.
# Submitted via: CDex 1.51
#
DISCID=8b08590a
DTITLE=T. Leino Band - Dynamite Boogie
DYEAR=2008
DGENRE=Blues
TTITLE0=Jumpin' At Main Street
TTITLE1=Juke Joint Boogie
TTITLE2=Meet Me At Midnight
TTITLE3=I Had A Dream
TTITLE4=Dynamite Boogie
TTITLE5=Hello Stranger
TTITLE6=Drinkin' And Hidin'
TTITLE7=Snake Bite
TTITLE8=Stranger In My House
TTITLE9=Big Fat Woman
EXTD=YEAR: 2008
EXTT0=
EXTT1=
EXTT2=
EXTT3=
EXTT4=
EXTT5=
EXTT6=
EXTT7=
EXTT8=
EXTT9=
PLAYORDER=
